<?xml version="1.0" encoding="UTF-8"?>
<svg id="Layer_2" data-name="Layer 2" xmlns="http://www.w3.org/2000/svg" viewBox="0 0 262.12 435.5">
  <defs>
    <style>
      .cls-1 {
        fill: #a7a9ac;
      }

      .cls-2 {
        fill: #939598;
      }

      .cls-3 {
        stroke: #231f20;
      }

      .cls-3, .cls-4, .cls-5 {
        stroke-miterlimit: 10;
      }

      .cls-3, .cls-6 {
        fill: #231f20;
      }

      .cls-4 {
        fill: none;
        stroke: #58595b;
      }

      .cls-7 {
        fill: #d1d3d4;
      }

      .cls-5 {
        stroke: #414042;
        stroke-width: 2px;
      }

      .cls-5, .cls-8 {
        fill: #58595b;
      }

      .cls-9 {
        fill: #bcbec0;
      }

      .cls-10 {
        fill: #414042;
      }
    </style>
  </defs>
  <g id="Layer_1-2" data-name="Layer 1">
    <rect class="cls-8" x="125.64" y="11.27" width="10.84" height="139.59"/>
    <g>
      <rect class="cls-3" x="102.36" y="27.2" width="57.4" height="11.58" rx="5.79" ry="5.79"/>
      <rect class="cls-3" x="102.36" y="43.22" width="57.4" height="11.58" rx="5.79" ry="5.79"/>
      <rect class="cls-3" x="102.36" y="59.23" width="57.4" height="11.58" rx="5.79" ry="5.79"/>
      <rect class="cls-3" x="102.36" y="75.27" width="57.4" height="11.58" rx="5.79" ry="5.79"/>
      <rect class="cls-3" x="102.36" y="91.31" width="57.4" height="11.58" rx="5.79" ry="5.79"/>
      <rect class="cls-3" x="102.36" y="107.33" width="57.4" height="11.58" rx="5.79" ry="5.79"/>
      <rect class="cls-3" x="102.36" y="123.35" width="57.4" height="11.58" rx="5.79" ry="5.79"/>
    </g>
    <rect class="cls-10" x="122.71" y="0" width="16.69" height="11.74" rx="4.1" ry="4.1"/>
    <rect class="cls-10" x="116.39" y="149.48" width="29.34" height="25.8"/>
    <rect class="cls-8" x="204.39" y="11.77" width="10.84" height="139.59"/>
    <g>
      <rect class="cls-3" x="181.11" y="27.7" width="57.4" height="11.58" rx="5.79" ry="5.79"/>
      <rect class="cls-3" x="181.11" y="43.71" width="57.4" height="11.58" rx="5.79" ry="5.79"/>
      <rect class="cls-3" x="181.11" y="59.73" width="57.4" height="11.58" rx="5.79" ry="5.79"/>
      <rect class="cls-3" x="181.11" y="75.77" width="57.4" height="11.58" rx="5.79" ry="5.79"/>
      <rect class="cls-3" x="181.11" y="91.81" width="57.4" height="11.58" rx="5.79" ry="5.79"/>
      <rect class="cls-3" x="181.11" y="107.83" width="57.4" height="11.58" rx="5.79" ry="5.79"/>
      <rect class="cls-3" x="181.11" y="123.85" width="57.4" height="11.58" rx="5.79" ry="5.79"/>
    </g>
    <rect class="cls-10" x="201.46" y=".5" width="16.69" height="11.74" rx="4.1" ry="4.1"/>
    <rect class="cls-10" x="195.14" y="149.98" width="29.34" height="25.8"/>
    <rect class="cls-8" x="34.96" y="11.77" width="10.84" height="139.59"/>
    <g>
      <rect class="cls-3" x="11.68" y="27.7" width="57.4" height="11.58" rx="5.79" ry="5.79"/>
      <rect class="cls-3" x="11.68" y="43.71" width="57.4" height="11.58" rx="5.79" ry="5.79"/>
      <rect class="cls-3" x="11.68" y="59.73" width="57.4" height="11.58" rx="5.79" ry="5.79"/>
      <rect class="cls-3" x="11.68" y="75.77" width="57.4" height="11.58" rx="5.79" ry="5.79"/>
      <rect class="cls-3" x="11.68" y="91.81" width="57.4" height="11.58" rx="5.79" ry="5.79"/>
      <rect class="cls-3" x="11.68" y="107.83" width="57.4" height="11.58" rx="5.79" ry="5.79"/>
      <rect class="cls-3" x="11.68" y="123.85" width="57.4" height="11.58" rx="5.79" ry="5.79"/>
    </g>
    <rect class="cls-10" x="32.03" y=".5" width="16.69" height="11.74" rx="4.1" ry="4.1"/>
    <rect class="cls-10" x="25.71" y="149.98" width="29.34" height="25.8"/>
    <rect class="cls-9" y="175.39" width="262.12" height="16.71"/>
    <rect class="cls-2" x="6.94" y="192.11" width="248.67" height="220.95"/>
    <line class="cls-4" x1="102.74" y1="216.15" x2="101.92" y2="395.21"/>
    <rect class="cls-10" x="16.12" y="242.68" width="73.17" height="170.38"/>
    <rect class="cls-1" y="413.06" width="262.12" height="22.44"/>
    <g>
      <rect class="cls-1" x="139.59" y="236.44" width="82.14" height="82.14"/>
      <polyline class="cls-8" points="139.59 236.44 135.68 232.51 135.68 314.95 139.59 318.58"/>
      <path class="cls-7" d="M221.73,236.44h-82.14c-1.3-1.31-2.6-2.62-3.91-3.93,27.68,.18,55.36,.36,83.03,.53,1,1.13,2.01,2.26,3.01,3.39Z"/>
    </g>
    <circle class="cls-10" cx="210.94" cy="246.96" r="1.75"/>
    <circle class="cls-10" cx="210.94" cy="308.06" r="1.75"/>
    <circle class="cls-10" cx="152.13" cy="308.06" r="1.75"/>
    <circle class="cls-10" cx="150.38" cy="246.96" r="1.75"/>
    <circle class="cls-5" cx="181.53" cy="277.41" r="27.66"/>
    <path class="cls-6" d="M182.95,254.84c7.6,.19,12.73,2.99,16.06,8.96,2.36,4.23,1.32,10.33-4.19,12.34-1.83,.67-3.72,1.13-5.58,1.73-.36,.12-.89,.4-.94,.68-.12,.64-.62,1.26,.1,2.01,2.94,3.09,7.63,4.29,11.66,2.85,.19-.07,.38-.2,.57-.2,.65,0,1.53-.22,1.88,.12,.43,.4,.65,1.33,.53,1.94-.62,3.02-1.83,5.82-3.76,8.25-3.5,4.4-7.95,6.8-13.71,6.67-4.74-.11-9.06-3.98-8.58-8.81,.23-2.33,.71-4.64,1.21-6.93,.34-1.56-.89-2.99-2.46-2.56-3.43,.93-5.89,3.05-7.33,6.29-.45,1.03-.59,2.19-.99,3.25-.23,.59-.62,1.36-1.11,1.53-.51,.17-1.39-.13-1.82-.53-4.75-4.38-7.17-9.85-5.94-16.22,.9-4.62,3.65-8.81,8.27-9.82,2.06-.45,4.1-.37,5.88,.83,1.78,1.2,3.46,2.56,5.1,3.95,1.07,.91,2.98,.44,3.36-.94,1.19-4.25-.29-8.57-3.78-11.32-.51-.4-1.13-1.24-1.02-1.69,.15-.58,.94-1.24,1.57-1.41,1.92-.49,3.89-.75,5.01-.95Z"/>
    <circle class="cls-10" cx="181.53" cy="277.41" r="5.37"/>
  </g>
</svg>