<?xml version="1.0" encoding="UTF-8"?>
<svg id="Layer_2" data-name="Layer 2" xmlns="http://www.w3.org/2000/svg" viewBox="0 0 73.61 70.27">
  <defs>
    <style>
      .cls-1 {
        fill: #414042;
      }

      .cls-1, .cls-2, .cls-3, .cls-4 {
        stroke-miterlimit: 10;
      }

      .cls-1, .cls-4 {
        stroke: #414042;
      }

      .cls-2 {
        fill: #a7a9ac;
        stroke: #a7a9ac;
      }

      .cls-5 {
        fill: #808285;
      }

      .cls-3 {
        fill: #6cbf5a;
        stroke: #4e6251;
      }

      .cls-4 {
        fill: #939598;
      }
    </style>
  </defs>
  <g id="Layer_1-2" data-name="Layer 1">
    <path class="cls-5" d="M8.19,61.36h57.11l.12-29.28c-9.57-7.71-19.13-15.41-28.7-23.12L8.19,32.2v29.16Z"/>
    <g>
      <rect class="cls-4" x="41.56" y="35.72" width="7.96" height="7.96"/>
      <rect class="cls-4" x="49.52" y="35.72" width="7.96" height="7.96"/>
      <rect class="cls-4" x="41.56" y="43.68" width="7.96" height="7.96"/>
      <rect class="cls-4" x="49.52" y="43.68" width="7.96" height="7.96"/>
    </g>
    <rect class="cls-1" x="16.79" y="35.16" width="13.42" height="25.63"/>
    <g>
      <g>
        <rect class="cls-3" x="15.26" y="5.38" width="6.36" height="10.21"/>
        <rect class="cls-3" x="13.39" y="2.34" width="10.11" height="3.04"/>
      </g>
      <path class="cls-3" d="M71.53,27.04L39.43,1.4c-.1-.08-.21-.14-.32-.21-.12-.08-.23-.16-.35-.22-.13-.07-.27-.12-.41-.17-.11-.05-.23-.1-.34-.13-.14-.04-.29-.06-.44-.09-.12-.02-.24-.05-.36-.06-.14-.01-.27,0-.41,0-.14,0-.27,0-.41,0-.12,.01-.24,.04-.36,.06-.15,.03-.29,.05-.44,.09-.12,.04-.23,.09-.34,.13-.14,.06-.28,.1-.41,.17-.12,.06-.23,.15-.35,.22-.11,.07-.22,.13-.32,.21L2.08,27.04c-1.81,1.45-2.11,4.1-.66,5.91,1.45,1.82,4.1,2.11,5.91,.66L36.81,10.07l29.48,23.54c1.82,1.45,4.46,1.15,5.91-.66h0c1.45-1.81,1.15-4.46-.66-5.91Z"/>
    </g>
    <rect class="cls-2" x="4.97" y="61.36" width="63.67" height="8.41"/>
  </g>
</svg>